<?xml version="1.0" encoding="utf-8"?>
<!-- Generator: Adobe Illustrator 18.0.0, SVG Export Plug-In . SVG Version: 6.00 Build 0)  -->
<!DOCTYPE svg PUBLIC "-//W3C//DTD SVG 1.1//EN" "http://www.w3.org/Graphics/SVG/1.1/DTD/svg11.dtd">
<svg version="1.1" id="algowolf" xmlns="http://www.w3.org/2000/svg" xmlns:xlink="http://www.w3.org/1999/xlink" x="0px" y="0px"
	 viewBox="0 0 106 50.1" enable-background="new 0 0 106 50.1" xml:space="preserve">
<path fill="#FFA801" d="M36.9,23.5c-1.3,1.5-1.7,1.9-3.2,2.5c-2.4-4.4-6.9-5-6.9-5s3-2.9-7-9.9C17.2,9.3,17,7.2,17,7.2L9,26.5
	l3.9,7.9l-9.3,1.4c0,0-2.7-5.2-3.5-8.3S16.6,0.9,16.6,0.9s15.6,19,20.2,18.6V23.5z"/>
<path fill="#FFA801" d="M90.4,0c0,0,16.3,22.9,15.5,26S103,36.1,103,36.1l-5.4-0.9c0,0-0.2-5.7-2.1-8.1l2.6-1.7L90.1,6
	c0,0-0.1,2.2-2.7,3.9c-9.8,6.4-9.1,9.2-9.1,9.2s-2.6,0.1-5,2.4c-2.3,0.1-3.8,0-6.9-4.1C66.3,17.5,76.7,14.8,90.4,0z"/>
<g>
	<path fill="#FFA801" d="M14.6,47.1c-2-2.7-1.9-6.9-0.1-9.4c1.5-2,3.7-4.1,8.3-4.5c1.9-0.2,3.3,0,5.3,0.5c0,0,0.1-2.1-0.2-3.7
		c-0.5-2.9-3.1-3.7-4.7-3.7c-1.6,0.1-4.1,1.4-4.6,4.2l-5.1,0c1.2-4.9,4.5-7.5,6.9-8.1c5-1.2,8.7,0.7,10.4,2.5
		c1.2,1.3,2.3,4.6,2.3,9.6l0.1,5.2c0.4,3,0.3,7.3,2.1,8.2c-0.1,0.9-1,1.5-1.4,1.7c-0.6,0.3-1.8,0.4-2.5,0.1c-0.6-0.2-1-0.8-1.2-1.1
		c-0.4-0.6-0.6-1.2-0.8-1.5c-0.5,0.9-2.9,2.8-7.2,2.8C17.3,50,15.7,48.6,14.6,47.1z M27.8,37.7c-1-0.5-3.4-0.9-5.4-0.4
		c-5,1.2-5,6.5-2.7,8.1c0.9,0.6,2.7,0.6,3.8,0.5c4.3-0.4,4.4-3.5,4.3-6.1L27.8,37.7z"/>
	<path fill="#FFA801" d="M38.6,19.5c0,0,3.3-0.7,5.4-3.1l-0.1,26.2c0,2.9,0.9,4.6,2.6,5.1c-0.8,1.6-2.3,2.4-4.3,2.4
		c-2.5,0-3.7-1.7-3.7-5.1L38.6,19.5z"/>
	<path fill="#FFA801" d="M49.4,47.1l3.2-3.9c1.8,1.6,3.7,2.4,5.9,2.4c1.4,0,2.6-0.2,3.6-0.6c0.9-0.4,1.4-1,1.4-1.8
		c0-1.3-1-1.9-3.1-1.9c-0.6,0-1.4,0.1-2.5,0.2c-1.1,0.1-1.9,0.2-2.5,0.2c-3.4,0-5.2-1.2-5.2-3.7c0-0.7,0.3-1.4,0.9-2.1
		c0.6-0.7,1.2-1.2,2-1.5c-2.4-1.6-3.7-3.8-3.7-6.8c0-2.3,0.8-4.2,2.5-5.7c1.7-1.5,3.8-2.3,6.2-2.3c1.9,0,3.5,0.4,4.8,1.1l2-2.4
		c1.7,2.7,3.4,3.4,3.4,3.4l-2.4,1.6c0.8,1.3,1.2,2.7,1.2,4.5c0,2.4-0.7,4.4-2.2,5.9c-1.5,1.5-3.4,2.2-5.6,2.2c-0.4,0-0.8,0-1.4-0.1
		L57,35.7c-0.1,0-0.5,0.1-1.1,0.4C55.3,36.4,55,36.7,55,37c0,0.5,0.5,0.8,1.4,0.8c0.4,0,1.1-0.1,2.1-0.3c1-0.2,1.8-0.3,2.5-0.3
		c4.9,0,7.3,2,7.3,5.9c0,2.2-1,3.9-2.9,5.1c-2,1.2-4.3,1.9-7.1,1.9C55,50,52,49.1,49.4,47.1z M54.4,27.7c0,1.3,0.4,2.3,1.1,3.1
		c0.7,0.8,1.6,1.2,2.8,1.2c1.2,0,2.1-0.4,2.7-1.1c0.6-0.7,1-1.8,1-3.1c0-1.1-0.3-2-1-2.7c-0.7-0.7-1.6-1.1-2.7-1.1
		c-1.1,0-2.1,0.4-2.8,1.1C54.7,25.6,54.4,26.5,54.4,27.7z"/>
	<path fill="#FFA801" d="M69.9,36c0-4.1,1.2-7.4,3.6-10c2.4-2.6,5.5-3.9,9.4-3.9c4.1,0,7.3,1.2,9.5,3.7c2.3,2.5,3.4,5.9,3.4,10.2
		c0,4.3-1.2,7.7-3.5,10.2C90,48.8,86.8,50,82.8,50c-4.1,0-7.3-1.3-9.5-3.8C71,43.7,69.9,40.3,69.9,36z M76.4,36
		c0,5.9,2.1,8.9,6.4,8.9c2,0,3.5-0.8,4.7-2.3c1.1-1.5,1.7-3.7,1.7-6.6c0-5.8-2.1-8.8-6.4-8.8c-2,0-3.5,0.8-4.7,2.3
		C77,31.1,76.4,33.3,76.4,36z"/>
</g>
</svg>
