<?xml version="1.0" encoding="utf-8"?>
<!-- Generator: Adobe Illustrator 18.0.0, SVG Export Plug-In . SVG Version: 6.00 Build 0)  -->
<!DOCTYPE svg PUBLIC "-//W3C//DTD SVG 1.1//EN" "http://www.w3.org/Graphics/SVG/1.1/DTD/svg11.dtd">
<svg version="1.1"
	 id="Layer_1" xmlns:dc="http://purl.org/dc/elements/1.1/" xmlns:cc="http://creativecommons.org/ns#" xmlns:rdf="http://www.w3.org/1999/02/22-rdf-syntax-ns#"
	 xmlns="http://www.w3.org/2000/svg" xmlns:xlink="http://www.w3.org/1999/xlink" x="0px" y="0px" viewBox="0 0 171.6 186.8"
	 enable-background="new 0 0 171.6 186.8" xml:space="preserve">
<path fill="#38508E" d="M78.4,186.5c-21.5-1.8-42.4-11.6-58-27.2c-5-5-10-11.1-9.8-12.1c0.1-0.7,71-82,71.5-82v66h89.4
	c0.4,0.4-3.7,8.4-7,13.4c-3.8,5.8-7.5,10.2-12.2,14.9C132.8,179,106,188.7,78.4,186.5L78.4,186.5z M92,120.5V58.2H0
	c-0.2-0.7,5.3-11.4,8.1-15.7c14.6-22.1,37.4-37,63.1-41.2c25.4-4.2,50.9,2.1,71.7,17.8c6.5,4.9,15.7,14.4,19.9,20.6
	c0.7,1,1.3,2,1.3,2.2L92,120.7L92,120.5L92,120.5z"/>
</svg>
