<?xml version="1.0" encoding="utf-8"?>
<!-- Generator: Adobe Illustrator 18.0.0, SVG Export Plug-In . SVG Version: 6.00 Build 0)  -->
<!DOCTYPE svg PUBLIC "-//W3C//DTD SVG 1.1//EN" "http://www.w3.org/Graphics/SVG/1.1/DTD/svg11.dtd">
<svg version="1.1" id="Layer_1" xmlns="http://www.w3.org/2000/svg" xmlns:xlink="http://www.w3.org/1999/xlink" x="0px" y="0px"
	 viewBox="0 0 1000 1000" enable-background="new 0 0 1000 1000" xml:space="preserve">
<rect fill="#E01B1C" stroke="#231F20" stroke-miterlimit="10" width="1000" height="1000"/>
<path fill="#FFFFFF" d="M698.7,552c-36.2,0-72.1,0-108.3,0c0-29.4,0-58.3,0-87.8c66,0,132,0,198.4,0c0,2.3,0,4.2,0,6.2
	c0,66.7,0,133.3,0.1,200c0,3.6-1,6.1-3.7,8.6c-35.4,32.6-77,52.9-123.5,63.9c-39.7,9.3-79.5,10.1-119.3,0.9
	c-48.5-11.2-89.9-35.2-124.2-71.2c-34.6-36.2-56.8-79-65.3-128.4c-11-63.8,0.3-123.8,35.5-178.3c36.6-56.8,88.2-94.2,154.2-109.4
	c67.1-15.5,130.6-4.9,189.1,32.2c16.5,10.5,31.3,23.1,44.7,37.3c1.8,2,2.9,3.5,0.6,5.8c-19.9,19.8-39.7,39.7-59.6,59.6
	c-0.4,0.4-1.1,0.7-1.4,0.8c-8.7-7.2-17-14.7-25.9-21.2c-65-47.4-151-39.4-206.2,19.3c-31.7,33.7-47.3,73.9-44,120.1
	c3.7,53,28.8,94.4,73,123.8c27.6,18.4,58.3,26.4,91.3,25.4c33.3-1,64.1-10.7,92.2-28.6c1.4-0.9,3-3,3-4.6c0.1-24.2,0-48.3-0.1-72.5
	C699.2,553.7,699,553.2,698.7,552z"/>
<path fill="#FFFFFF" d="M303.2,262c0,158.7,0,317.4,0,476.6c-2.1,0-3.9,0-5.7,0c-27,0-54-0.1-81,0.1c-3.9,0-5.5-0.8-5.5-5.1
	c0.1-155.6,0.1-311.2,0.1-466.8c0-2.7-0.5-5.2,3.8-5.2c28.7,0.2,57.3,0.1,86,0.2C301.6,261.6,302.3,261.8,303.2,262z"/>
</svg>
