<?xml version="1.0" encoding="utf-8"?>
<!-- Generator: Adobe Illustrator 18.0.0, SVG Export Plug-In . SVG Version: 6.00 Build 0)  -->
<!DOCTYPE svg PUBLIC "-//W3C//DTD SVG 1.1//EN" "http://www.w3.org/Graphics/SVG/1.1/DTD/svg11.dtd">
<svg version="1.1" id="Layer_1" xmlns="http://www.w3.org/2000/svg" xmlns:xlink="http://www.w3.org/1999/xlink" x="0px" y="0px"
	 viewBox="0 0 100 100" enable-background="new 0 0 100 100" xml:space="preserve">
<g>
	<path fill="#96C93D" d="M36.5,94c4.3,1.3,8.8,2,13.5,2c9.8,0,18.8-3,26.3-8.1L36.5,40.4V94z"/>
	<path fill="#96C93D" d="M3.3,49.3C3.3,62,8.4,73.6,16.6,82V16.7C8.4,25.1,3.3,36.6,3.3,49.3z"/>
	<path fill="#96C93D" d="M36.5,10.1l53.3,63.5c4.3-7.1,6.8-15.4,6.8-24.3c0-25.8-20.9-46.7-46.7-46.7c-9.3,0-17.9,2.7-25.2,7.4
		L36.5,10.1L36.5,10.1z"/>
</g>
</svg>
