<?xml version="1.0" encoding="utf-8"?>
<!-- Generator: Adobe Illustrator 18.0.0, SVG Export Plug-In . SVG Version: 6.00 Build 0)  -->
<!DOCTYPE svg PUBLIC "-//W3C//DTD SVG 1.1//EN" "http://www.w3.org/Graphics/SVG/1.1/DTD/svg11.dtd">
<svg version="1.1" xmlns="http://www.w3.org/2000/svg" xmlns:xlink="http://www.w3.org/1999/xlink" x="0px" y="0px"
	 viewBox="0 0 86.4 50" enable-background="new 0 0 86.4 50" xml:space="preserve">
<g id="Layer_1" display="none">
	<path display="inline" fill="#E74C3C" d="M29.8,17.2c-1.2-7.3-4-12.4-7.2-12.4s-6,5.1-7.2,12.4H29.8z M14.8,25
		c0,1.8,0.1,3.5,0.3,5.2h15.1c0.2-1.7,0.3-3.4,0.3-5.2s-0.1-3.5-0.3-5.2H15C14.9,21.5,14.8,23.2,14.8,25z M41.2,17.2
		c-2.3-5.5-7-9.8-12.9-11.5c2,2.8,3.4,6.9,4.1,11.5H41.2z M16.8,5.6C11,7.4,6.3,11.7,4,17.2h8.8C13.5,12.5,14.8,8.4,16.8,5.6z
		 M42.1,19.8h-9.3c0.2,1.7,0.3,3.5,0.3,5.2s-0.1,3.5-0.3,5.2h9.3c0.4-1.7,0.7-3.4,0.7-5.2S42.5,21.5,42.1,19.8z M12.2,25
		c0-1.8,0.1-3.5,0.3-5.2H3.1c-0.4,1.7-0.7,3.4-0.7,5.2c0,1.8,0.3,3.5,0.7,5.2h9.3C12.2,28.5,12.2,26.8,12.2,25z M15.4,32.8
		c1.2,7.3,4,12.4,7.2,12.4s6-5.1,7.2-12.4H15.4z M28.3,44.4c5.8-1.7,10.5-6,12.9-11.5h-8.8C31.7,37.5,30.3,41.6,28.3,44.4z M4,32.8
		c2.3,5.5,7,9.8,12.9,11.5c-2-2.8-3.4-6.9-4.1-11.5C12.7,32.8,4,32.8,4,32.8z"/>
	
		<text transform="matrix(1 0 0 1 47.5797 31.7452)" display="inline" fill="#E74C3C" font-family="'MyriadPro-Regular'" font-size="19.3634">Live</text>
</g>
<g id="Layer_2" display="none">
	<path display="inline" fill="#E74C3C" d="M12.5,32.9H3.7c2.3,5.6,7.1,9.8,12.9,11.6C14.6,41.7,13.2,37.5,12.5,32.9z M33.2,32.9l5,5
		c1.2-1.5,2.2-3.2,3-5H33.2z M31.3,37.4c-0.8,2.8-1.8,5.2-3.1,7.1c2.5-0.7,4.7-1.9,6.7-3.5L31.3,37.4z M26.8,32.9H15.2
		c1.2,7.3,4,12.4,7.2,12.4c2.9,0,5.4-4,6.8-10L26.8,32.9z M12.2,19.8H2.8c-0.5,1.7-0.7,3.4-0.7,5.2s0.3,3.6,0.7,5.2h9.4
		c-0.2-1.7-0.3-3.5-0.3-5.2S12,21.5,12.2,19.8z M42,19.8h-9.4c0.2,1.7,0.3,3.5,0.3,5.2s-0.1,3.5-0.3,5.2H42c0.5-1.7,0.7-3.4,0.7-5.2
		S42.4,21.4,42,19.8z M9.6,9.3l3.8,3.8c0.8-3,1.9-5.6,3.3-7.5C14,6.3,11.6,7.6,9.6,9.3z M6.4,12.5c-1.1,1.4-2,3-2.7,4.7h7.4
		L6.4,12.5z M28.2,5.5c2,2.8,3.4,6.9,4.1,11.6h8.8C38.8,11.6,34,7.3,28.2,5.5z M30,19.8h-9.9l10,10c0.1-1.5,0.2-3.1,0.2-4.7
		C30.3,23.2,30.2,21.4,30,19.8z M14.7,20.8c-0.1,1.4-0.2,2.8-0.2,4.2c0,1.8,0.1,3.6,0.3,5.2h9.4L14.7,20.8z M22.4,4.7
		c-3,0-5.5,4.3-6.9,10.5l1.9,1.9h12.2C28.5,9.8,25.7,4.7,22.4,4.7z"/>
	
		<text transform="matrix(1 0 0 1 43.4131 31.7452)" display="inline" fill="#E74C3C" font-family="'MyriadPro-Regular'" font-size="19.3634">Offline</text>
	
		<rect x="-1.8" y="19.7" transform="matrix(0.7071 0.7071 -0.7071 0.7071 22.9917 -11.5423)" display="inline" fill="#E74C3C" width="54.5" height="4.5"/>
</g>
<g id="Layer_3">
	<text transform="matrix(1 0 0 1 45.1876 31.7452)" font-family="'MyriadPro-Regular'" font-size="19.3634">Stop</text>
	<path d="M29.3,33.8H15.8c-1.1,0-2.1-0.9-2.1-2.1V18.3c0-1.1,0.9-2.1,2.1-2.1h13.5c1.1,0,2.1,0.9,2.1,2.1v13.5
		C31.4,32.9,30.5,33.8,29.3,33.8z"/>
	<circle fill="none" stroke="#000000" stroke-width="4" stroke-miterlimit="10" cx="22.6" cy="25" r="17.8"/>
</g>
</svg>
