<?xml version="1.0" encoding="utf-8"?>
<!-- Generator: Adobe Illustrator 18.0.0, SVG Export Plug-In . SVG Version: 6.00 Build 0)  -->
<!DOCTYPE svg PUBLIC "-//W3C//DTD SVG 1.1//EN" "http://www.w3.org/Graphics/SVG/1.1/DTD/svg11.dtd">
<svg version="1.1" id="Layer_1" xmlns="http://www.w3.org/2000/svg" xmlns:xlink="http://www.w3.org/1999/xlink" x="0px" y="0px"
	 viewBox="0 0 100 100" enable-background="new 0 0 100 100" xml:space="preserve">
<g>
	<path fill="#FFA801" d="M50,66.5c-1.4-22.3-3.9-37.4-6.6-42.4c-1.5-2.8-7.7-4.3-7.7-4.3s1.4-3.1-6.1-8.3c-1.9-1.3-2-2.9-2-2.9
		l-5.9,14.4l3.2,6.9c0,0-10.8,20.9-12.5,29.5c0,0-1.7-1.1,7.6,3l-5,6.3l11.3,8.8l3.2-5.8l11,28.2l-9.4-7.7c0,0-2.9-8.3-7.1-11.4
		C21.1,78.6,6.6,65.4,6.6,65.4L18,30.9c0,0-2.3-5-2.9-7.2S27,0.1,27,0.1s17.4,16.6,19.3,16.8c1.9,0.2,3.7,0.2,3.7,0.2V66.5z"/>
	<path fill="#FFA801" d="M28.8,50.7c0,0,10.3,3.4,11.9,4.4s1,9.3,1,9.3s-4.3-4.7-10.4-5.1C29.7,59.2,28.8,50.7,28.8,50.7z"/>
	<path fill="#FFA801" d="M50,66.5c1.4-22.3,3.9-37.4,6.6-42.4c1.5-2.8,7.7-4.3,7.7-4.3s-1.4-3.1,6.1-8.3c1.9-1.3,2-2.9,2-2.9
		l5.9,14.4l-3.2,6.9c0,0,10.8,20.9,12.5,29.5c0,0,1.7-1.1-7.6,3l5,6.3l-11.3,8.8l-3.2-5.8l-11,28.2l9.4-7.7c0,0,2.9-8.3,7.1-11.4
		c2.9-2.2,17.5-15.4,17.5-15.4L82,30.9c0,0,2.3-5,2.9-7.2C85.5,21.4,73,0.1,73,0.1S55.6,16.6,53.7,16.8c-1.9,0.2-3.7,0.2-3.7,0.2
		V66.5z"/>
	<path fill="#FFA801" d="M71.2,50.7c0,0-10.3,3.4-11.9,4.4s-1,9.3-1,9.3s4.3-4.7,10.4-5.1C70.3,59.2,71.2,50.7,71.2,50.7z"/>
	<path fill="#FFA801" d="M41.8,88.7c0,0,3.5,9,8.4,9.2c2.5,0.1,5.4-2.6,8.4-9.2c0,0-3.4,3.6-8.4,3.6C44,92.4,41.8,88.7,41.8,88.7z"
		/>
</g>
</svg>
