<?xml version="1.0" encoding="utf-8"?>
<!-- Generator: Adobe Illustrator 18.0.0, SVG Export Plug-In . SVG Version: 6.00 Build 0)  -->
<!DOCTYPE svg PUBLIC "-//W3C//DTD SVG 1.1//EN" "http://www.w3.org/Graphics/SVG/1.1/DTD/svg11.dtd">
<svg version="1.1" id="Layer_1" xmlns="http://www.w3.org/2000/svg" xmlns:xlink="http://www.w3.org/1999/xlink" x="0px" y="0px"
	 viewBox="0 0 124 40.4" enable-background="new 0 0 124 41" xml:space="preserve">
<path d="M27.4,12.4C26.2,5.1,23.4,0,20.2,0s-6,5.1-7.2,12.4H27.4z M12.4,20.2c0,1.8,0.1,3.5,0.3,5.2h15.1c0.2-1.7,0.3-3.4,0.3-5.2
	s-0.1-3.5-0.3-5.2H12.6C12.5,16.7,12.4,18.4,12.4,20.2z M38.8,12.4c-2.3-5.5-7-9.8-12.9-11.5c2,2.8,3.4,6.9,4.1,11.5H38.8z
	 M14.4,0.8C8.6,2.6,3.9,6.8,1.6,12.4h8.8C11.1,7.7,12.4,3.6,14.4,0.8z M39.7,15h-9.3c0.2,1.7,0.3,3.5,0.3,5.2c0,1.8-0.1,3.5-0.3,5.2
	h9.3c0.4-1.7,0.7-3.4,0.7-5.2S40.1,16.7,39.7,15z M9.8,20.2c0-1.8,0.1-3.5,0.3-5.2H0.7C0.3,16.7,0,18.4,0,20.2
	c0,1.8,0.3,3.5,0.7,5.2H10C9.9,23.7,9.8,21.9,9.8,20.2z M13,28c1.2,7.3,4,12.4,7.2,12.4s6-5.1,7.2-12.4H13z M26,39.5
	c5.8-1.7,10.5-6,12.9-11.5H30C29.3,32.7,28,36.8,26,39.5z M1.6,28c2.3,5.5,7,9.8,12.9,11.5c-2-2.8-3.4-6.9-4.1-11.5H1.6z"/>
<text transform="matrix(1 0 0 1 48.2816 35.5377)" font-family="trebuchet ms" font-size="41">Live</text>
</svg>
