<?xml version="1.0" encoding="utf-8"?>
<!-- Generator: Adobe Illustrator 18.0.0, SVG Export Plug-In . SVG Version: 6.00 Build 0)  -->
<!DOCTYPE svg PUBLIC "-//W3C//DTD SVG 1.1//EN" "http://www.w3.org/Graphics/SVG/1.1/DTD/svg11.dtd">
<svg version="1.1" id="Layer_2" xmlns="http://www.w3.org/2000/svg" xmlns:xlink="http://www.w3.org/1999/xlink" x="0px" y="0px"
	 viewBox="0 0 141.7 40.4" enable-background="new 0 0 141.7 40.4" xml:space="preserve">
<path d="M9.5,29H1.4c2.1,5.1,6.5,9,11.8,10.6C11.4,37.1,10.2,33.3,9.5,29z M28.4,29l4.5,4.5c1.1-1.4,2-2.9,2.7-4.5H28.4z M26.7,33.1
	c-0.7,2.5-1.7,4.8-2.9,6.4c2.2-0.7,4.3-1.8,6.1-3.2L26.7,33.1z M22.5,29H11.9c1.1,6.7,3.6,11.4,6.6,11.4c2.6,0,4.9-3.7,6.2-9.2
	L22.5,29z M9.2,17H0.6C0.2,18.6,0,20.2,0,21.8s0.2,3.2,0.6,4.8h8.6C9.1,25,9,23.4,9,21.8S9.1,18.6,9.2,17z M36.4,17h-8.6
	c0.2,1.6,0.2,3.2,0.2,4.8S28,25,27.8,26.6h8.6c0.4-1.5,0.6-3.1,0.6-4.8S36.8,18.6,36.4,17z M6.8,7.5l3.4,3.4c0.7-2.7,1.7-5.1,3-6.8
	C10.9,4.8,8.7,5.9,6.8,7.5z M3.9,10.4c-1,1.3-1.9,2.7-2.5,4.2h6.7L3.9,10.4z M23.8,4.1c1.8,2.5,3.1,6.3,3.7,10.6h8.1
	C33.5,9.6,29.2,5.7,23.8,4.1z M25.4,17h-9.1l9.1,9.1c0.1-1.4,0.2-2.8,0.2-4.3C25.7,20.2,25.6,18.6,25.4,17z M11.5,18
	c-0.1,1.2-0.2,2.5-0.2,3.8c0,1.7,0.1,3.2,0.2,4.8h8.5L11.5,18z M18.5,3.3c-2.7,0-5.1,3.9-6.3,9.6l1.8,1.8h11.1
	C24.1,8,21.5,3.3,18.5,3.3z"/>
<text transform="matrix(1 0 0 1 43.7343 32.5437)" font-family="trebuchet ms" font-size="31.6297">Offline</text>
<rect x="-3.6" y="17" transform="matrix(0.7071 0.7071 -0.7071 0.7071 19.7252 -9.4685)" width="49.7" height="4.1"/>
</svg>
